<svg fill="#000000" xmlns="http://www.w3.org/2000/svg"  viewBox="0 0 24 24" width="24px" height="24px"><path d="M15.231,11.231c-0.305,0-0.527,0.123-0.668,0.369s-0.211,0.684-0.211,1.313v0.439c0,0.625,0.066,1.062,0.199,1.31 s0.357,0.372,0.674,0.372c0.328,0,0.576-0.146,0.744-0.439V11.7C15.806,11.388,15.56,11.231,15.231,11.231z M19,3H5 C3.896,3,3,3.895,3,5v14c0,1.105,0.896,2,2,2h14c1.104,0,2-0.895,2-2V5C21,3.895,20.104,3,19,3z M10.274,16.3l-1.172-2.982 L7.937,16.3H5.938l2.051-4.301l-2.01-4.23h1.975l1.148,2.93l1.148-2.93h1.975l-2.004,4.23l2.051,4.301H10.274z M17.64,16.3 h-1.506l-0.076-0.645c-0.34,0.508-0.777,0.762-1.313,0.762c-0.664,0-1.171-0.254-1.521-0.762s-0.528-1.254-0.536-2.238v-0.48 c0-1.039,0.176-1.814,0.527-2.326s0.863-0.768,1.535-0.768c0.488,0,0.895,0.211,1.219,0.633V7.3h1.67V16.3z"/></svg>